<?xml version="1.0" encoding="UTF-8" standalone="no"?>
<!-- Uploaded to: SVG Repo, www.svgrepo.com, Generator: SVG Repo Mixer Tools -->

<svg
   fill="#000000"
   version="1.1"
   id="Capa_1"
   width="800px"
   height="800px"
   viewBox="0 0 349.116 349.116"
   xml:space="preserve"
   sodipodi:docname="printing-press_2-svgrepo-com.svg"
   inkscape:version="1.3.1 (9b9bdc1480, 2023-11-25, custom)"
   xmlns:inkscape="http://www.inkscape.org/namespaces/inkscape"
   xmlns:sodipodi="http://sodipodi.sourceforge.net/DTD/sodipodi-0.dtd"
   xmlns="http://www.w3.org/2000/svg"
   xmlns:svg="http://www.w3.org/2000/svg"><defs
   id="defs5"><rect
     x="283.98046"
     y="526.64704"
     width="183.77379"
     height="81.89504"
     id="rect6" /></defs><sodipodi:namedview
   id="namedview5"
   pagecolor="#505050"
   bordercolor="#ffffff"
   borderopacity="1"
   inkscape:showpageshadow="0"
   inkscape:pageopacity="0"
   inkscape:pagecheckerboard="1"
   inkscape:deskcolor="#505050"
   inkscape:zoom="0.62375"
   inkscape:cx="400"
   inkscape:cy="400"
   inkscape:window-width="1328"
   inkscape:window-height="699"
   inkscape:window-x="0"
   inkscape:window-y="0"
   inkscape:window-maximized="1"
   inkscape:current-layer="Capa_1"
   showgrid="false" />
<g
   id="g5">
	<g
   id="g4">
		<rect
   x="0.877"
   y="227.79"
   width="347.362"
   height="13.098"
   id="rect1" />
		<polygon
   points="57.613,247.872 57.613,287.432 38.408,287.432 38.408,349.116 127.428,349.116 127.428,287.432 82.049,287.432     82.049,247.872   "
   id="polygon1" />
		<polygon
   points="237.696,246.708 237.696,286.276 192.302,286.276 192.302,347.947 281.331,347.947 281.331,286.276     262.114,286.276 262.114,246.708   "
   id="polygon2" />
		<path
   d="M233.903,215.575h15.996h11.058V57.604h-27.061H82.049H54.995v57.6v79.132v21.239h27.054h12.799v-10.62h129.756v10.62    H233.903z M137.755,194.335H82.042v-79.132h29.231v31.426h26.476v47.706H137.755z M181.975,194.335V146.63h26.476v-31.426h25.453    v79.132H181.975z"
   id="path2" />
		<rect
   x="33.75"
   y="57.604"
   width="17.452"
   height="57.6"
   id="rect2" />
		<rect
   x="264.294"
   y="57.308"
   width="17.458"
   height="57.604"
   id="rect3" />
		<rect
   x="123.936"
   width="70.984"
   height="52.952"
   id="rect4" />
	</g>
</g>
<rect
   style="fill:#ffffff;stroke-width:0.436395"
   id="rect5"
   width="128.74582"
   height="67.153671"
   x="97.101173"
   y="209.7664" /><text
   xml:space="preserve"
   transform="matrix(-0.62170256,0,0,-1.2406885,382.43788,931.97024)"
   id="text5"
   style="font-size:53.3333px;white-space:pre;shape-inside:url(#rect6);fill:#ffffff"><tspan
     x="283.98047"
     y="573.83396"
     id="tspan4"><tspan
       style="fill:#000000"
       id="tspan3">A B C</tspan></tspan></text><path
   style="fill:#0000ff;stroke-width:1.60321"
   d="M 127.45491,313.42685 V 133.06613 h 234.86974 234.86974 v 180.36072 180.36073 h -39.27856 -39.27856 v -7.21443 c 0,-3.96794 -0.72144,-7.21443 -1.6032,-7.21443 -0.88177,0 -1.60321,-2.52505 -1.60321,-5.61123 v -5.61122 H 366.33267 217.23447 v 12.82565 12.82566 h -44.88978 -44.88978 z m 189.17836,76.95391 V 335.07014 H 286.17234 255.71142 V 298.998 262.92585 h -34.46894 -34.46893 v 91.38277 91.38276 h 64.92986 64.92986 z m 219.63928,-36.07214 v -91.38277 h -29.65932 -29.65932 v 36.07215 36.07214 h -30.46092 -30.46093 v 55.31062 55.31062 h 60.12024 60.12025 z"
   id="path1"
   transform="scale(0.436395)" /><path
   style="fill:#0000ff;stroke-width:1.60321"
   d="M 284.56914,60.12024 V 0 h 80.96192 80.96193 v 60.12024 60.12024 h -80.96193 -80.96192 z"
   id="path3"
   transform="scale(0.436395)" /><path
   style="fill:#0000ff;stroke-width:1.60321"
   d="m 77.755511,197.99599 v -64.92986 h 19.238477 19.238472 v 64.92986 64.92986 H 96.993988 77.755511 Z"
   id="path4"
   transform="scale(0.436395)" /><path
   style="fill:#0000ff;stroke-width:1.60321"
   d="m 606.81363,197.19439 v -65.73146 h 19.23847 19.23848 v 65.73146 65.73146 H 626.0521 606.81363 Z"
   id="path5"
   transform="scale(0.436395)" /><path
   style="fill:#0000ff;stroke-width:1.60321"
   d="m 518.63727,537.07415 v -14.42886 h 139.47896 139.47896 v 14.42886 14.42886 H 658.11623 518.63727 Z"
   id="path6"
   transform="scale(0.436395)" /><path
   style="fill:#0000ff;stroke-width:1.60321"
   d="M 2.4048096,537.07415 V 522.64529 H 112.22445 222.04409 v 14.42886 14.42886 H 112.22445 2.4048096 Z"
   id="path7"
   transform="scale(0.436395)" /><path
   style="fill:#0000ff;stroke-width:1.60321"
   d="m 88.977956,729.45892 v -70.54108 h 21.643284 21.64329 v -44.88978 -44.88978 h 27.25451 27.25451 v 44.88978 44.88978 h 52.10421 52.1042 V 729.45892 800 H 189.97996 88.977956 Z"
   id="path8"
   transform="scale(0.436395)" /><path
   style="fill:#0000ff;stroke-width:1.60321"
   d="m 441.68337,727.05411 v -69.73948 h 52.10421 52.1042 v -45.69138 -45.69139 h 27.25451 27.25451 v 45.69139 45.69138 h 21.64329 21.64328 v 69.73948 69.73948 h -101.002 -101.002 z"
   id="path9"
   transform="scale(0.436395)" /></svg>
