<?xml version="1.0" encoding="UTF-8" standalone="no"?>
<!-- Uploaded to: SVG Repo, www.svgrepo.com, Generator: SVG Repo Mixer Tools -->

<svg
   fill="#000000"
   version="1.1"
   id="Layer_1"
   viewBox="0 0 480 480"
   xml:space="preserve"
   sodipodi:docname="translator-language_2-svgrepo-com.svg"
   inkscape:version="1.3.1 (9b9bdc1480, 2023-11-25, custom)"
   xmlns:inkscape="http://www.inkscape.org/namespaces/inkscape"
   xmlns:sodipodi="http://sodipodi.sourceforge.net/DTD/sodipodi-0.dtd"
   xmlns="http://www.w3.org/2000/svg"
   xmlns:svg="http://www.w3.org/2000/svg"><defs
   id="defs16" /><sodipodi:namedview
   id="namedview16"
   pagecolor="#505050"
   bordercolor="#ffffff"
   borderopacity="1"
   inkscape:showpageshadow="0"
   inkscape:pageopacity="0"
   inkscape:pagecheckerboard="1"
   inkscape:deskcolor="#505050"
   inkscape:zoom="0.73509642"
   inkscape:cx="-12.923475"
   inkscape:cy="227.86126"
   inkscape:window-width="1328"
   inkscape:window-height="699"
   inkscape:window-x="0"
   inkscape:window-y="0"
   inkscape:window-maximized="1"
   inkscape:current-layer="Layer_1"
   showgrid="false" />
<g
   id="g2">
	<g
   id="g1">
		<path
   d="M88,320H72c0,13.232-10.768,24-24,24v16c13.232,0,24,10.768,24,24h16c0-13.232,10.768-24,24-24v-16    C98.768,344,88,333.232,88,320z M80,360.248c-2.336-3.144-5.104-5.912-8.248-8.248c3.144-2.336,5.912-5.104,8.248-8.248    c2.336,3.144,5.104,5.912,8.248,8.248C85.104,354.336,82.336,357.104,80,360.248z"
   id="path1" />
	</g>
</g>
<g
   id="g4"
   style="fill:#ff6600">
	<g
   id="g3"
   style="fill:#ff6600">
		<path
   d="M464,352V136C464,61.008,402.984,0,327.976,0H324c-77.192,0-140,62.808-140,140v60c0,4.416,3.584,8,8,8h24v16    c0,4.416,3.584,8,8,8h22.632c-3.304,9.312-12.2,16-22.632,16c-4.416,0-8,3.584-8,8v8c0,22.056,17.944,40,40,40h80v48H232    c-66.168,0-120,53.832-120,120v8h16v-8c0-57.344,46.656-104,104-104h107.36l61.696,107.968c1.432,2.504,4.088,4.032,6.944,4.032    c0.152,0,0.304,0,0.456-0.008c3.032-0.176,5.696-2.048,6.896-4.832L461.272,368H480v-16H464z M406.976,454.08L357.784,368h86.08    L406.976,454.08z M448,352h-96v-56c0-4.416-3.584-8-8-8h-88c-13.232,0-24-10.768-24-24v-0.808c18.232-3.712,32-19.88,32-39.192    c0-4.416-3.584-8-8-8h-24v-16c0-4.416-3.584-8-8-8h-24v-52c0-68.376,55.624-124,124-124h3.976C394.16,16,448,69.832,448,136V352z"
   id="path2"
   style="fill:#ff6600" />
	</g>
</g>
<g
   id="g6">
	<g
   id="g5">
		<path
   d="M198.24,251L168,213.192V128c0-22.056-17.944-40-40-40H40c-22.056,0-40,17.944-40,40v96c0,22.056,17.944,40,40,40h152    c3.072,0,5.88-1.76,7.208-4.536C200.544,256.696,200.168,253.4,198.24,251z M40,248c-13.232,0-24-10.768-24-24v-96    c0-13.232,10.768-24,24-24h88c13.232,0,24,10.768,24,24v88c0,1.816,0.616,3.576,1.752,5l21.6,27H40z"
   id="path4" />
	</g>
</g>
<g
   id="g8">
	<g
   id="g7">
		<path
   d="M84,128c-28.672,0-52,21.528-52,48s23.328,48,52,48s52-21.528,52-48S112.672,128,84,128z M49.28,184h14.976    c0.336,5.696,1.128,13.144,2.904,20.112C58.4,199.944,51.832,192.728,49.28,184z M64.256,168H49.28    c2.552-8.728,9.12-15.944,17.88-20.112C65.384,154.848,64.592,162.304,64.256,168z M84,204.472    c-1.528-4.176-3.08-11.232-3.696-20.472h7.392C87.08,193.24,85.528,200.296,84,204.472z M80.304,168    c0.616-9.24,2.168-16.296,3.696-20.472c1.528,4.176,3.08,11.232,3.696,20.472H80.304z M100.84,204.112    c1.776-6.96,2.568-14.416,2.904-20.112h14.976C116.168,192.728,109.6,199.944,100.84,204.112z M103.744,168    c-0.336-5.696-1.128-13.144-2.904-20.112c8.76,4.168,15.328,11.384,17.88,20.112H103.744z"
   id="path6" />
	</g>
</g>
<g
   id="g10">
	<g
   id="g9">
		<path
   d="M296,128c0,13.232-10.768,24-24,24s-24-10.768-24-24h-16c0,22.056,17.944,40,40,40c22.056,0,40-17.944,40-40H296z"
   id="path8" />
	</g>
</g>
<g
   id="g12">
	<g
   id="g11">
		<rect
   x="312"
   y="384"
   width="16"
   height="16"
   id="rect10" />
	</g>
</g>
<g
   id="g14">
	<g
   id="g13">
		<rect
   x="280"
   y="384"
   width="16"
   height="16"
   id="rect12" />
	</g>
</g>
<g
   id="g16">
	<g
   id="g15">
		<rect
   x="248"
   y="384"
   width="16"
   height="16"
   id="rect14" />
	</g>
</g>
<path
   style="fill:#ff6600;stroke-width:0.961924"
   d="m 259.79512,165.41444 c -13.47052,-4.78133 -22.42295,-14.57939 -26.05221,-28.51305 -2.17054,-8.33329 -2.4283,-8.00359 6.25709,-8.00359 7.33634,0 7.69583,0.10098 7.70479,2.16432 0.0277,6.3786 7.87591,16.60593 15.04005,19.59929 5.34069,2.23149 14.59728,1.69984 20.35438,-1.16905 7.47158,-3.72324 11.03661,-8.60599 13.10526,-17.94927 0.57634,-2.60311 0.70257,-2.64529 7.91577,-2.64529 h 7.33009 l -0.58499,4.93935 c -1.41195,11.92166 -10.28843,23.85421 -22.05333,29.64605 -8.63988,4.2534 -20.29012,5.02879 -29.0169,1.93124 z"
   id="path16" /><path
   style="fill:#ff8080;stroke-width:0.961924"
   d="m 248.65731,391.98397 v -7.21443 h 7.21443 7.21443 v 7.21443 7.21443 h -7.21443 -7.21443 z"
   id="path18" /><path
   style="fill:#ff2a2a;stroke-width:0.961924"
   d="m 280.4008,391.98397 v -7.21443 h 7.69539 7.69539 v 7.21443 7.21443 h -7.69539 -7.69539 z"
   id="path19" /><path
   style="fill:#ffccaa;stroke-width:0.961924"
   d="m 312.14429,391.98397 v -7.21443 h 7.69539 7.69539 v 7.21443 7.21443 h -7.69539 -7.69539 z"
   id="path20" /><path
   style="fill:#ffccaa;stroke-width:0.961924"
   d="m 352.54509,322.1705 v -28.93172 l -2.81178,-2.81177 -2.81177,-2.81178 h -47.03691 c -41.25872,0 -47.61127,-0.1957 -51.71248,-1.59313 -6.48866,-2.2109 -12.43413,-8.35684 -14.36096,-14.84515 -2.07087,-6.97341 -1.99034,-7.30415 2.10063,-8.62731 8.98409,-2.90576 16.22426,-8.28941 21.54161,-16.01792 6.23079,-9.05613 8.65653,-23.48867 4.75801,-28.30893 -1.75444,-2.16925 -2.46481,-2.28482 -15.87174,-2.58233 l -14.03509,-0.31145 v -9.46276 c 0,-9.38573 -0.0241,-9.48304 -2.95958,-11.95309 -2.86434,-2.41019 -3.37769,-2.49031 -15.95415,-2.49031 H 200.3963 l 0.41004,-34.86974 c 0.398,-33.84578 0.48431,-35.1576 2.93948,-44.6722 11.0625,-42.870998 40.5401,-75.123952 81.23015,-88.878063 30.22887,-10.21801 65.49173,-8.398948 93.14968,4.805199 34.80762,16.617471 58.09224,45.875254 67.05465,84.256084 1.98436,8.49791 2.02754,10.77828 2.34509,123.84769 l 0.32351,115.19038 h -47.65191 -47.6519 z M 288.47825,164.67647 c 7.1329,-3.33789 14.78722,-10.01939 18.23892,-15.92086 2.82629,-4.83218 5.42712,-13.27982 5.42712,-17.62759 v -3.19215 h -8.13277 -8.13276 l -0.65461,3.60722 c -4.26264,23.48943 -35.87776,26.84676 -45.09419,4.78873 -0.80995,-1.9385 -1.47265,-4.62061 -1.47265,-5.96024 0,-2.42591 -0.0348,-2.43571 -8.65731,-2.43571 -9.93375,0 -9.54525,-0.52135 -7.15831,9.60623 3.29493,13.98012 12.94856,24.29536 27.12972,28.98905 8.43658,2.79235 20.21377,2.02611 28.50684,-1.85468 z"
   id="path21" /><path
   style="fill:#ffccaa;stroke-width:0.961924"
   d="m 383.07727,411.27052 c -13.08929,-22.90919 -23.79871,-41.92322 -23.79871,-42.25339 0,-0.33016 18.87597,-0.6003 41.9466,-0.6003 33.17663,0 41.84443,0.2514 41.45792,1.20241 -1.04706,2.57633 -35.54566,82.9758 -35.67245,83.13515 -0.074,0.0931 -10.84406,-18.57467 -23.93336,-41.48387 z"
   id="path22" /><path
   style="fill:#f9f9f9;stroke-width:1.36037"
   d="m 32.790694,246.17392 c -4.614822,-1.38097 -11.142097,-7.24763 -13.867022,-12.46355 -1.558004,-2.98225 -1.9191,-13.83828 -1.9191,-57.69602 v -54.02258 l 3.381686,-5.77041 c 2.274071,-3.88041 5.343612,-6.72016 9.371686,-8.67012 5.830726,-2.82261 7.326181,-2.88938 56.24213,-2.5113 l 50.252136,0.38841 5.14162,3.92317 c 9.99081,7.62321 10.2227,9.04081 10.26236,62.73475 l 0.0352,47.6128 10.32712,12.92308 c 5.67991,7.10769 10.61098,13.38238 10.95793,13.94375 0.88452,1.43118 -135.366346,1.0502 -140.185706,-0.39198 z m 74.402356,-26.82626 c 11.85062,-5.54557 19.09749,-12.44316 24.40916,-23.23269 3.8945,-7.91085 4.43274,-10.3359 4.42098,-19.919 -0.0112,-9.11908 -0.65467,-12.3047 -3.91721,-19.39248 -4.72018,-10.25448 -14.11324,-19.49079 -25.02062,-24.60307 -6.95933,-3.26184 -9.354829,-3.64586 -22.742683,-3.64586 -13.9652,0 -15.567972,0.28614 -24.012156,4.28686 -11.436678,5.4185 -19.337789,13.29105 -24.578025,24.48918 -3.811754,8.14553 -4.065985,9.63944 -3.507578,20.61124 0.470039,9.23553 1.370797,13.32645 4.108188,18.65795 3.509026,6.83438 13.948632,17.75478 20.18635,21.11602 14.880334,8.01839 35.580789,8.68527 50.653594,1.63185 z"
   id="path43" /><path
   style="fill:#00ffff;stroke-width:1.36037"
   d="m 103.19483,196.23276 c 0.46376,-2.80575 0.84994,-6.47874 0.85818,-8.16219 0.0135,-2.76618 0.6731,-3.06083 6.85173,-3.06083 h 6.83677 l -1.97731,3.8237 c -2.22752,4.30754 -10.17933,12.50069 -12.13246,12.50069 -0.72223,0 -0.91264,-2.22321 -0.43691,-5.10137 z"
   id="path44" /><path
   style="fill:#00ffff;stroke-width:0.340091"
   d="m 80.432038,167.7501 c 0.0021,-1.28121 1.206101,-10.09775 1.72024,-12.59651 0.680836,-3.30892 1.64043,-6.87372 1.850307,-6.87372 0.231617,0 1.262156,3.92414 1.916657,7.29836 0.525762,2.7105 1.654303,11.01256 1.654303,12.16979 0,0.14143 -1.606932,0.25715 -3.57096,0.25715 -1.964028,0 -3.570774,-0.11478 -3.570547,-0.25507 z"
   id="path45" /><path
   style="fill:#00ffff;stroke-width:0.340091"
   d="m 64.774105,202.63184 c -3.304643,-1.87348 -7.358333,-5.30117 -9.67855,-8.18393 -1.983623,-2.46456 -4.784199,-7.45922 -5.435127,-9.69324 l -0.22296,-0.7652 h 7.305868 7.305867 l 0.214968,2.63571 c 0.308809,3.78628 1.488764,12.12794 2.075673,14.67391 0.275835,1.19656 0.454254,2.22282 0.396485,2.28059 -0.05777,0.0578 -0.940769,-0.36876 -1.962224,-0.94784 z"
   id="path46" /><path
   style="fill:#00ff00;stroke-width:0.340091"
   d="m 49.660428,167.23996 c 0.650928,-2.23401 3.451504,-7.22867 5.435127,-9.69323 2.369993,-2.9446 6.420485,-6.34938 9.833379,-8.26578 2.007693,-1.12735 2.011514,-1.12799 1.777627,-0.30022 -0.788492,2.79061 -2.590205,15.68844 -2.598163,18.59933 -8.94e-4,0.32691 -1.695486,0.42511 -7.336046,0.42511 h -7.334884 z"
   id="path47" /><path
   style="fill:#00ff00;stroke-width:0.340091"
   d="m 83.343185,201.86543 c -0.921735,-3.17066 -1.82273,-8.01493 -2.377466,-12.78262 -0.293298,-2.52076 -0.533455,-4.69799 -0.533681,-4.83827 -2.27e-4,-0.14029 1.606519,-0.25507 3.570547,-0.25507 1.964028,0 3.57096,0.11572 3.57096,0.25715 0,1.15723 -1.128541,9.45928 -1.654303,12.16979 -0.654501,3.37421 -1.68504,7.29836 -1.916657,7.29836 -0.06698,0 -0.363709,-0.8322 -0.6594,-1.84934 z"
   id="path48" /><path
   style="fill:#00ff00;stroke-width:0.340091"
   d="m 103.89677,167.58006 c -0.008,-2.89528 -1.81031,-15.81657 -2.59018,-18.56881 l -0.22641,-0.79902 1.15381,0.59401 c 7.18476,3.69888 13.94108,11.43556 16.09788,18.43372 l 0.23583,0.76521 h -7.33488 c -5.64056,0 -7.33515,-0.0982 -7.33605,-0.42511 z"
   id="path49" /><path
   style="fill:#00ff00;stroke-width:1.36037"
   d="m 353.01491,321.96363 c 0,-28.56566 -0.0483,-29.05611 -3.14849,-31.9686 -3.09953,-2.91185 -3.84546,-2.95836 -47.9529,-2.99031 -24.64241,-0.0179 -47.20567,-0.58938 -50.14057,-1.27005 -9.00787,-2.08919 -16.31992,-9.10402 -17.89797,-17.17049 -0.77248,-3.94866 -0.47275,-4.32159 5.22097,-6.49604 13.62044,-5.2017 23.79828,-18.80775 25.14036,-33.60844 0.60103,-6.62828 0.28755,-8.14773 -2.19267,-10.62795 -2.54554,-2.54553 -4.44992,-2.89396 -15.81744,-2.89396 h -12.92347 v -8.69168 c 0,-13.50964 -1.80727,-14.99924 -18.90466,-15.58172 l -13.70758,-0.467 0.74791,-33.54214 c 0.81068,-36.3571 2.10827,-45.29434 9.01769,-62.10983 14.63792,-35.624398 44.30926,-62.194843 81.34237,-72.841431 14.53822,-4.179573 43.04085,-5.182416 58.61763,-2.062417 23.62631,4.732309 43.01072,15.334038 61.09239,33.412693 20.12254,20.119175 31.54477,43.528253 34.0951,69.875585 0.66158,6.8346 1.21944,60.94059 1.23971,120.23553 l 0.0369,107.80899 h -46.93262 -46.93262 z m -63.4275,-157.27684 c 12.88714,-6.23856 22.64181,-20.20496 22.62326,-32.39122 l -0.007,-4.42119 h -8.56023 -8.56023 l -1.58643,5.93148 c -2.99896,11.21279 -15.6872,18.63432 -26.82247,15.68884 -8.52219,-2.25427 -17.04746,-11.672 -17.04746,-18.83203 0,-2.54991 -0.82863,-2.78829 -9.69261,-2.78829 h -9.69261 l 0.86942,4.34708 c 3.71732,18.58661 11.77817,28.67494 27.63389,34.58444 7.49316,2.79272 22.87951,1.73557 30.8422,-2.11911 z"
   id="path3" /><path
   style="fill:#00ff00;stroke-width:1.36037"
   d="m 386.00922,414.61763 c -11.23159,-19.66567 -21.41014,-37.7083 -22.61901,-40.09474 l -2.19794,-4.33897 5.81314,-0.87173 c 6.87631,-1.03117 72.50323,-0.32121 73.61766,0.7964 0.70059,0.70259 -31.72853,77.80057 -33.44781,79.51985 -0.40973,0.40973 -9.93445,-15.34513 -21.16604,-35.01081 z"
   id="path5" /></svg>
